<mxfile host="app.diagrams.net" modified="2023-10-18T00:48:51.450Z" agent="Mozilla/5.0 (Windows NT 10.0; Win64; x64) AppleWebKit/537.36 (KHTML, like Gecko) Chrome/115.0.0.0 Safari/537.36" version="22.0.4" etag="tFy5jTmN5Lc_WiasvO8G" type="github">
  <diagram name="Page-1" id="QczFBqDV84SLnrEBTn3X">
    <mxGraphModel>
      <root>
        <mxCell id="0" />
        <mxCell id="1" parent="0" />
      </root>
    </mxGraphModel>
  </diagram>
</mxfile>
